<svg xmlns="http://www.w3.org/2000/svg" viewBox="0 0 277.63 238.06"><defs><style>.cls-1,.cls-2{fill:#000084;}.cls-2{font-size:45.08px;font-family:Arvo-Bold, Arvo;font-weight:700;}.cls-3{font-size:23.46px;fill:#ff7900;font-family:Arvo;}</style></defs><g id="Layer_2" data-name="Layer 2"><g id="TEXTS"><path class="cls-1" d="M214.49,75.66,174.81,36l2.3-6.71h-9L138.81,0,109.53,29.28h-9L102.82,36,63.14,75.66l75.67,75.65Zm-101-13.38a1.34,1.34,0,0,1,0-2.67h50.64a1.34,1.34,0,1,1,0,2.67Zm10.35,4.92v49l-3.27-3.28V67.2Zm4.92,0h3.6v57.51l-3.6-3.59Zm8.52,0h3.07v62.43l-1.54,1.53-1.53-1.53Zm8,0h3.59v53.92l-3.59,3.59Zm8.51,0h3.28v45.72l-3.28,3.28Zm8.2,0h2.15a6.26,6.26,0,1,0,0-12.51H113.49a6.26,6.26,0,0,0,0,12.51h2.16V108l-32-32,26.05-26h58.21L194,76l-32,32Zm-1-38.07a22.38,22.38,0,0,1-13.38-6.45l-8.79-8.78-8.43,8.43-.35.35a22.38,22.38,0,0,1-13.39,6.45L138.81,7ZM114.1,34.2a27.23,27.23,0,0,0,19.41-8l.35-.35,4.95-4.95,5,4.95h0l.35.35a27.22,27.22,0,0,0,19.4,8h6.7l-3.73,10.86H111.14L107.41,34.2Zm-9.5,7,1.78,5.18L76.7,76l62.11,62.1L200.93,76,171.25,46.35,173,41.17l34.5,34.49-68.72,68.69L70.1,75.66Z"/><text class="cls-2" transform="translate(0 205.71)">NORTHCAP</text><text class="cls-3" transform="translate(2.49 232.26)">Chamber Of Commerce</text></g></g></svg>