<svg xmlns="http://www.w3.org/2000/svg" viewBox="0 0 1063.51 280.39"><defs><style>.cls-1,.cls-2{fill:#000084;}.cls-2{font-size:120.72px;font-family:Arvo-Bold, Arvo;font-weight:700;}.cls-3{font-size:64.02px;fill:#ff7900;font-family:Arvo;}</style></defs><g id="Layer_2" data-name="Layer 2"><g id="TEXTS"><path class="cls-1" d="M280.46,140.21,206.93,66.7l4.27-12.44H194.49L140.23,0,86,54.26H69.26L73.53,66.7,0,140.21,140.23,280.39ZM93.31,115.41a2.47,2.47,0,0,1,0-4.94h93.84a2.47,2.47,0,0,1,0,4.94Zm19.18,9.11v90.8l-6.07-6.06V124.52Zm9.12,0h6.66V231.1l-6.66-6.66Zm15.77,0h5.7V240.21l-2.85,2.85-2.85-2.85Zm14.82,0h6.66v99.92l-6.66,6.66Zm15.77,0h6.08v84.74L168,215.33Zm15.19,0h4a11.59,11.59,0,1,0,0-23.17H93.31a11.59,11.59,0,0,0,0,23.17h4v75.62L38,140.87,86.29,92.61H194.17l48.28,48.26-59.29,59.27ZM181.32,54A41.43,41.43,0,0,1,156.51,42L140.23,25.76,124.61,41.38,124,42A41.44,41.44,0,0,1,99.15,54l41.08-41.09Zm-86.88,9.4a50.49,50.49,0,0,0,36-14.9l.66-.65,9.17-9.18,9.18,9.18h0l.65.65a50.52,50.52,0,0,0,36,14.9h12.41l-6.91,20.11H89L82,63.38ZM76.83,76.29l3.3,9.59-55,55L140.23,256,255.35,140.87l-55-55,3.29-9.59,63.94,63.92L140.23,267.5,12.9,140.21Z"/><text class="cls-2" transform="translate(316.09 150.04)">NORTHCAP</text><text class="cls-3" transform="translate(315.74 232)">Chamber Of Commerce</text></g></g></svg>