<svg xmlns="http://www.w3.org/2000/svg" viewBox="0 0 732.09 193.73"><defs><style>.cls-1,.cls-2{fill:#000084;}.cls-2{font-size:83.41px;font-family:Arvo-Bold, Arvo;font-weight:700;}.cls-3{font-size:44.23px;fill:#ff7900;font-family:Arvo;}</style></defs><g id="Layer_2" data-name="Layer 2"><g id="TEXTS"><path class="cls-1" d="M193.78,96.87,143,46.08l3-8.59H134.38L96.89,0,59.4,37.49H47.85l3,8.59L0,96.87l96.89,96.86ZM64.47,79.74a1.71,1.71,0,0,1,0-3.42h64.84a1.71,1.71,0,0,1,0,3.42ZM77.72,86v62.73l-4.19-4.19V86ZM84,86h4.6v73.63l-4.6-4.6Zm10.9,0h3.94V166l-2,2-2-2Zm10.24,0h4.6v69l-4.6,4.6Zm10.9,0h4.19v58.54l-4.19,4.19Zm10.49,0h2.76a8,8,0,0,0,0-16H64.47a8,8,0,0,0,0,16h2.76v52.24l-41-40.95L59.62,64h74.54l33.35,33.34-41,41Zm-1.27-48.75A28.52,28.52,0,0,1,108.14,29L96.89,17.8,86.1,28.59l-.46.45A28.52,28.52,0,0,1,68.5,37.29L96.89,8.91Zm-60,6.5A34.9,34.9,0,0,0,90.1,33.5l.45-.45,6.34-6.34,6.34,6.34h0l.45.45a34.9,34.9,0,0,0,24.85,10.29h8.57l-4.78,13.9H61.46l-4.78-13.9ZM53.08,52.71l2.28,6.63-38,38,79.53,79.52,79.53-79.52-38-38,2.28-6.63,44.17,44.16-88,87.95-88-87.95Z"/><text class="cls-2" transform="translate(218.39 103.67)">NORTHCAP</text><text class="cls-3" transform="translate(222.99 160.29)">Chamber OfCommerce</text></g></g></svg>